<svg xmlns="http://www.w3.org/2000/svg" width="220" height="254" viewBox="0 0 220 254"><path fill="#fff" d="M110 0l110 63.5v127L110 254 0 190.5v-127L110 0z"/><path fill="#ff9500" d="M47.8 178.5l-4.8-6.8a2.2 2.2 0 0 1 .2-2.5l17.4-20.5H52a2 2 0 0 1-2.1-2.1v-15a2.1 2.1 0 0 1 2.1-2.1h12.1a56.4 56.4 0 0 1-2.3-15.8 49.4 49.4 0 1 1 96.4 15.8h12.1a2.1 2.1 0 0 1 2.1 2.1v15a2 2 0 0 1-2.1 2.1h-10.7l17.2 20.5a2.3 2.3 0 0 1 0 2.5l-4.8 6.8a2.3 2.3 0 0 1-2.8.7l-10-5.3H60.6l-10.1 5.3a2.3 2.3 0 0 1-2.7-.7zm31.7-29.8H65.8l-18.4 21.7 2.9 4.2L85.6 156zm-25.4-15v10.8h114.1v-10.8zm14.4-4.2h85.3a49.3 49.3 0 0 0 2.5-15.8 45.2 45.2 0 0 0-90.3 0c0 5.4.4 11 2.5 15.8zm20 29.8l-19.8 10.5h28.4zM85 148.7l17.5 21.1h15l17.5-21.1zm46.5 10.6l-8.6 10.5h28.4zm22.7-10.6h-13.7l-6.3 7.3 35.5 18.6 2.9-4z"/></svg>