<svg xmlns="http://www.w3.org/2000/svg" width="220" height="254" viewBox="0 0 220 254"><path fill="#fff" d="M110 0l110 63.5v127L110 254 0 190.5v-127L110 0z"/><path fill="#ff9500" d="M49.7 173.9a2 2 0 0 1-2.1-2v-25.3H20.1a2.2 2.2 0 0 1-2.1-2.1 2.3 2.3 0 0 1 2.1-2.1h15.6v-13.5a2 2 0 0 1 2.1-2.1H46a66 66 0 0 1 63.8-50.7c.2-.2.4-.2.8 0a65.8 65.8 0 0 1 63.4 50.7h8.2a2 2 0 0 1 2.1 2.1v13.5h15.6a2.3 2.3 0 0 1 2.1 2.1 2.3 2.3 0 0 1-2.1 2.1h-27.5v25.3a2 2 0 0 1-2.1 2zM39.9 131v11.4h140.2V131zm65.9-50.5c-26.7 1.7-49 21.1-55.5 46.3h22.4zm-54 66.1v23.2h56.1v-23.2zm56.1-61.9l-30 42.1h30zm4.2-4.4v46.5h57.6a62 62 0 0 0-57.6-46.5zm0 66.3v23.2h9.4v-23.2zm13.5 0v23.2h42.6v-23.2z"/></svg>