<svg xmlns="http://www.w3.org/2000/svg"><symbol id="bubble" viewBox="0 0 220 254"><path fill="#fff" d="M110 0l110 63.5v127L110 254 0 190.5v-127L110 0z"/><path fill="#ff9500" d="M47.8 178.5l-4.8-6.8a2.2 2.2 0 0 1 .2-2.5l17.4-20.5H52a2 2 0 0 1-2.1-2.1v-15a2.1 2.1 0 0 1 2.1-2.1h12.1a56.4 56.4 0 0 1-2.3-15.8 49.4 49.4 0 1 1 96.4 15.8h12.1a2.1 2.1 0 0 1 2.1 2.1v15a2 2 0 0 1-2.1 2.1h-10.7l17.2 20.5a2.3 2.3 0 0 1 0 2.5l-4.8 6.8a2.3 2.3 0 0 1-2.8.7l-10-5.3H60.6l-10.1 5.3a2.3 2.3 0 0 1-2.7-.7zm31.7-29.8H65.8l-18.4 21.7 2.9 4.2L85.6 156zm-25.4-15v10.8h114.1v-10.8zm14.4-4.2h85.3a49.3 49.3 0 0 0 2.5-15.8 45.2 45.2 0 0 0-90.3 0c0 5.4.4 11 2.5 15.8zm20 29.8l-19.8 10.5h28.4zM85 148.7l17.5 21.1h15l17.5-21.1zm46.5 10.6l-8.6 10.5h28.4zm22.7-10.6h-13.7l-6.3 7.3 35.5 18.6 2.9-4z"/></symbol><symbol id="mecha-stilts" viewBox="0 0 220 254"><path fill="#fff" d="M110 0l110 63.5v127L110 254 0 190.5v-127L110 0z"/><path fill="#ff9500" d="M46.2 173.9a2.1 2.1 0 1 1 0-4.1h10.4v-13.2H46.2a1.9 1.9 0 0 1-2.1-2.1v-41a1.9 1.9 0 0 1 2.1-2.1h13.7C61 81.7 83.1 65.5 110 65.5s49 16.2 50.1 45.9h13.7a1.9 1.9 0 0 1 2.1 2.1v41a1.9 1.9 0 0 1-2.1 2.1h-10.4v13.2h10.4a2.1 2.1 0 1 1 0 4.1zm2-58.4v37h123.5v-37zm12.6 41.1v13.2h13.3v-13.2zm3.3-45.2h91.8c-1.1-26.9-21.5-41.8-45.9-41.8s-44.9 14.9-45.9 41.8zm14.2 45.2v13.2h20.8v-13.2zm25 0v13.2h13.4v-13.2zm56.6-14.2H109a2.1 2.1 0 1 1 0-4.1h50.9a2.1 2.1 0 0 1 0 4.1zm-39.1 14.2v13.2h20.9v-13.2zm25.1 0v13.2h13.3v-13.2z"/></symbol><symbol id="dome" viewBox="0 0 220 254"><path fill="#fff" d="M110 0l110 63.5v127L110 254 0 190.5v-127L110 0z"/><path fill="#ff9500" d="M49.7 173.9a2 2 0 0 1-2.1-2v-25.3H20.1a2.2 2.2 0 0 1-2.1-2.1 2.3 2.3 0 0 1 2.1-2.1h15.6v-13.5a2 2 0 0 1 2.1-2.1H46a66 66 0 0 1 63.8-50.7c.2-.2.4-.2.8 0a65.8 65.8 0 0 1 63.4 50.7h8.2a2 2 0 0 1 2.1 2.1v13.5h15.6a2.3 2.3 0 0 1 2.1 2.1 2.3 2.3 0 0 1-2.1 2.1h-27.5v25.3a2 2 0 0 1-2.1 2zM39.9 131v11.4h140.2V131zm65.9-50.5c-26.7 1.7-49 21.1-55.5 46.3h22.4zm-54 66.1v23.2h56.1v-23.2zm56.1-61.9l-30 42.1h30zm4.2-4.4v46.5h57.6a62 62 0 0 0-57.6-46.5zm0 66.3v23.2h9.4v-23.2zm13.5 0v23.2h42.6v-23.2z"/></symbol></svg>