<svg xmlns="http://www.w3.org/2000/svg" width="220" height="254" viewBox="0 0 220 254"><path fill="#fff" d="M110 0l110 63.5v127L110 254 0 190.5v-127L110 0z"/><path fill="#ff9500" d="M46.2 173.9a2.1 2.1 0 1 1 0-4.1h10.4v-13.2H46.2a1.9 1.9 0 0 1-2.1-2.1v-41a1.9 1.9 0 0 1 2.1-2.1h13.7C61 81.7 83.1 65.5 110 65.5s49 16.2 50.1 45.9h13.7a1.9 1.9 0 0 1 2.1 2.1v41a1.9 1.9 0 0 1-2.1 2.1h-10.4v13.2h10.4a2.1 2.1 0 1 1 0 4.1zm2-58.4v37h123.5v-37zm12.6 41.1v13.2h13.3v-13.2zm3.3-45.2h91.8c-1.1-26.9-21.5-41.8-45.9-41.8s-44.9 14.9-45.9 41.8zm14.2 45.2v13.2h20.8v-13.2zm25 0v13.2h13.4v-13.2zm56.6-14.2H109a2.1 2.1 0 1 1 0-4.1h50.9a2.1 2.1 0 0 1 0 4.1zm-39.1 14.2v13.2h20.9v-13.2zm25.1 0v13.2h13.3v-13.2z"/></svg>